#!OML:ASF F:\VICON\USERDATA\INSTALL\Justin_Nancy\Justin_Nancy.ASF
:FULLY-SPECIFIED
:DEGREES
363
root 0.90009 17.1825 5.01591 1.58756 4.15328 7.13654
lowerback 6.12991 -2.3302 -7.55554
upperback -0.106485 -3.60329 1.2841
thorax -3.0035 -1.67132 5.88066
lowerneck -17.9199 -3.13569 -9.13804
upperneck 20.9426 -2.98783 5.08215
head 9.83062 -1.53693 2.89226
rclavicle 2.5842e-014 -1.19271e-014
rhumerus -37.2483 -21.6482 -73.9188
rradius 27.5695
rwrist 9.72209
rhand -16.1232 12.2822
rfingers 7.12502
rthumb 10.0813 -17.4563
lclavicle 2.5842e-014 -1.19271e-014
lhumerus -21.8332 -0.476352 85.3439
lradius 31.1453
lwrist -8.89657
lhand -13.8473 25.98
lfingers 7.12502
lthumb 12.2763 55.5996
rfemur -30.7076 2.88817 11.0232
rtibia 15.5057
rfoot -1.33026 -13.3514
rtoes -5.097
lfemur 8.72269 -0.403248 -31.0087
ltibia 18.0651
lfoot -17.4214 0.136351
ltoes -8.55703
364
root 0.884301 17.1782 5.21132 1.5217 4.3478 6.96424
lowerback 6.26268 -2.36379 -7.46557
upperback -0.151444 -3.65084 1.36865
thorax -3.11763 -1.6894 5.93167
lowerneck -17.833 -3.17969 -9.29035
upperneck 20.81 -3.06057 5.28669
head 9.77903 -1.5587 2.97858
rclavicle -3.926e-014 1.43125e-014
rhumerus -37.8701 -22.1121 -73.4265
rradius 27.4432
rwrist 9.87934
rhand -15.9858 10.9395
rfingers 7.12502
rthumb 10.2138 -18.7926
lclavicle -3.926e-014 1.43125e-014
lhumerus -21.622 -0.477679 85.3615
lradius 31.6175
lwrist -8.76677
lhand -13.8514 25.7725
lfingers 7.12502
lthumb 12.2724 55.3924
rfemur -29.9705 3.17955 11.1342
rtibia 13.7674
rfoot -2.75484 -13.0479
rtoes -7.24345
lfemur 9.36175 -0.740676 -30.6723
ltibia 18.1047
lfoot -17.381 -0.49333
ltoes -10.9261
365
root 0.865873 17.1653 5.40513 1.56164 4.52934 6.72025
lowerback 6.184 -2.40502 -7.31496
upperback -0.137911 -3.68579 1.44229
thorax -3.05803 -1.71196 5.92126
lowerneck -18.1553 -3.19902 -9.2965
upperneck 21.0321 -3.08759 5.39942
head 9.92149 -1.55743 3.0182
rclavicle -6.55989e-015 -5.56597e-015
rhumerus -38.2577 -22.8041 -72.97
rradius 27.0937
rwrist 9.49611
rhand -15.4909 10.1684
rfingers 7.12502
rthumb 10.6912 -19.5396
lclavicle -6.55989e-015 -5.56597e-015
lhumerus -21.3032 -0.834835 85.3462
lradius 32.0999
lwrist -8.19007
lhand -13.6723 26.0294
lfingers 7.12502
lthumb 12.445 55.6389
rfemur -29.5713 3.31482 11.4678
rtibia 12.7226
rfoot -3.99021 -12.382
rtoes -8.97408
lfemur 9.91565 -1.04155 -30.2546
ltibia 18.2224
lfoot -17.1358 -1.42148
ltoes -11.116
366
root 0.849255 17.1513 5.59874 1.57149 4.55631 6.55394
lowerback 6.2018 -2.36581 -7.18546
upperback -0.217111 -3.62834 1.43373
thorax -3.16804 -1.6782 5.83934
lowerneck -17.9652 -3.25188 -9.29123
upperneck 21.0308 -3.20518 5.49229
head 9.89661 -1.60323 3.03462
rclavicle 1.98288e-014 3.97569e-015
rhumerus -38.9844 -23.5786 -72.4112
rradius 26.6835
rwrist 8.62396
rhand -15.063 10.6441
rfingers 7.12502
rthumb 11.104 -19.0422
lclavicle 1.98288e-014 3.97569e-015
lhumerus -21.2698 -1.11351 85.2845
lradius 32.6293
lwrist -7.791
lhand -13.7517 26.2185
lfingers 7.12502
lthumb 12.3685 55.8326
rfemur -29.365 2.85013 12.1313
rtibia 12.3945
rfoot -4.3554 -11.0098
rtoes -11.7651
lfemur 10.4926 -1.24795 -29.9889
ltibia 18.409
lfoot -16.9264 -1.80363
ltoes -12.0862
367
root 0.840289 17.1428 5.79756 1.35159 4.62286 6.40769
lowerback 6.42786 -2.3661 -7.06335
upperback -0.203404 -3.6333 1.50845
thorax -3.28243 -1.67754 5.86247
lowerneck -17.7934 -3.26703 -9.30509
upperneck 20.8733 -3.20367 5.36595
head 9.80732 -1.61843 2.99034
rclavicle -4.22914e-014 4.77083e-015
rhumerus -39.5683 -24.0328 -71.8366
rradius 26.3301
rwrist 7.91405
rhand -14.6844 11.3381
rfingers 7.12502
rthumb 11.4691 -18.3282
lclavicle -4.22914e-014 4.77083e-015
lhumerus -21.1936 -0.963938 85.3397
lradius 33.1649
lwrist -7.72991
lhand -13.9572 26.0681
lfingers 7.12502
lthumb 12.1704 55.6941
rfemur -28.9784 1.8502 12.9679
rtibia 12.6232
rfoot -4.07098 -9.0621
rtoes -13.5797
lfemur 11.2604 -1.56155 -29.7862
ltibia 18.7306
lfoot -16.7421 -1.99245
ltoes -13.1957
368
root 0.82553 17.1342 5.99976 1.21362 4.63682 6.28882
lowerback 6.3358 -2.38089 -7.05195
upperback -0.00525502 -3.63655 1.59059
thorax -3.01817 -1.69631 5.92966
lowerneck -18.0111 -3.27415 -9.32598
upperneck 20.6473 -3.1852 5.39204
head 9.76692 -1.60252 3.00135
rclavicle -1.799e-014 -5.56597e-015
rhumerus -39.5849 -24.4954 -71.5163
rradius 25.7654
rwrist 7.61458
rhand -14.8676 10.8292
rfingers 7.12502
rthumb 11.2924 -18.8469
lclavicle -1.799e-014 -5.56597e-015
lhumerus -20.6911 -0.805309 85.3306
lradius 33.4924
lwrist -7.60994
lhand -14.1168 25.8565
lfingers 7.12502
lthumb 12.0165 55.4915
rfemur -28.9093 0.831928 13.8383
rtibia 13.4919
rfoot -3.25309 -7.17883
rtoes -15.1088
lfemur 11.8959 -1.95224 -29.6239
ltibia 19.094
lfoot -16.2258 -2.23946
ltoes -14.145
369
root 0.803147 17.1243 6.19749 1.16681 4.49589 5.93608
lowerback 6.17073 -2.32764 -6.85422
upperback 0.212213 -3.53031 1.68349
thorax -2.72018 -1.66489 5.89062
lowerneck -18.5118 -3.32672 -9.32141
upperneck 20.5612 -3.25484 5.58814
head 9.83739 -1.60375 3.05729
rclavicle 1.36167e-014 -7.95139e-016
rhumerus -39.5759 -25.2725 -71.1938
rradius 25.2449
rwrist 7.31726
rhand -14.7438 10.2251
rfingers 7.12502
rthumb 11.4118 -19.4443
lclavicle 1.36167e-014 -7.95139e-016
lhumerus -20.2353 -0.763291 85.2622
lradius 33.976
lwrist -7.27586
lhand -14.3809 26.056
lfingers 7.12502
lthumb 11.7618 55.7058
rfemur -29.1775 0.226146 14.8776
rtibia 14.8453
rfoot -2.72324 -6.05364
rtoes -14.137
lfemur 12.3522 -2.41488 -29.2728
ltibia 19.4834
lfoot -15.5916 -2.18275
ltoes -16.0849
370
root 0.785486 17.113 6.41003 1.01381 4.39471 5.95877
lowerback 6.23521 -2.2711 -6.9117
upperback 0.207706 -3.46481 1.64602
thorax -2.76994 -1.62934 5.88332
lowerneck -18.4716 -3.32038 -9.28876
upperneck 20.5235 -3.25634 5.57935
head 9.81587 -1.60298 3.04811
rclavicle -2.5842e-015 2.38542e-015
rhumerus -40.1462 -26.1894 -70.4358
rradius 24.7111
rwrist 7.47843
rhand -14.5759 10.3336
rfingers 7.12502
rthumb 11.5738 -19.3268
lclavicle -2.5842e-015 2.38542e-015
lhumerus -20.4949 -0.799857 85.2545
lradius 34.6853
lwrist -6.88536
lhand -14.4573 26.1856
lfingers 7.12502
lthumb 11.6882 55.8396
rfemur -29.0666 -0.493467 15.5062
rtibia 16.1667
rfoot -2.67701 -5.11766
rtoes -13.5651
lfemur 12.8629 -2.70948 -29.2982
ltibia 20.1699
lfoot -15.0165 -2.26702
ltoes -18.2821
371
root 0.773198 17.0987 6.6332 0.755268 4.3967 6.04784
lowerback 6.28576 -2.29491 -7.03754
upperback 0.163904 -3.51059 1.6443
thorax -2.82989 -1.6467 5.96028
lowerneck -18.0184 -3.24334 -9.44085
upperneck 20.3486 -3.15841 5.63643
head 9.666 -1.56737 3.10651
rclavicle -4.60683e-014 -3.18055e-015
rhumerus -40.833 -26.6336 -69.7855
rradius 24.4046
rwrist 7.73569
rhand -14.6709 9.77308
rfingers 7.12502
rthumb 11.4821 -19.8925
lclavicle -4.60683e-014 -3.18055e-015
lhumerus -20.9036 -0.554375 85.2714
lradius 35.2015
lwrist -6.48998
lhand -14.4507 26.049
lfingers 7.12502
lthumb 11.6945 55.7026
rfemur -28.7074 -0.973946 15.8973
rtibia 17.6077
rfoot -2.85269 -4.69758
rtoes -13.7287
lfemur 13.4986 -2.99387 -29.3944
ltibia 20.9226
lfoot -14.3671 -2.44018
ltoes -20.4225
372
root 0.748185 17.0874 6.85242 0.546385 4.35694 5.7483
lowerback 6.10603 -2.32153 -6.9301
upperback 0.310007 -3.51826 1.75858
thorax -2.57438 -1.66692 6.00446
lowerneck -18.0728 -3.2015 -9.54763
upperneck 20.3476 -3.0999 5.78687
head 9.67471 -1.5308 3.18569
rclavicle -1.18774e-014 -7.15625e-015
rhumerus -41.1008 -27.4183 -69.1475
rradius 23.843
rwrist 8.33015
rhand -14.4063 9.68594
rfingers 7.12502
rthumb 11.7373 -19.9652
lclavicle -1.18774e-014 -7.15625e-015
lhumerus -20.8425 -0.297293 85.2083
lradius 35.5098
lwrist -6.18319
lhand -14.3544 26.0322
lfingers 7.12502
lthumb 11.7874 55.6805
rfemur -28.5055 -0.439561 16.4171
rtibia 19.2974
rfoot -3.28992 -5.26468
rtoes -13.2824
lfemur 14.0812 -3.39435 -29.0494
ltibia 21.5004
lfoot -13.4699 -2.73213
ltoes -21.9022
373
root 0.726478 17.0887 7.08201 0.467562 4.70865 6.04735
lowerback 5.84298 -2.37535 -7.22642
upperback 0.451659 -3.59111 1.60325
thorax -2.26009 -1.71841 5.99235
lowerneck -18.2871 -3.28918 -9.60983
upperneck 20.4359 -3.23843 6.00687
head 9.76186 -1.57282 3.25582
rclavicle -5.72997e-014 -1.03368e-014
rhumerus -41.4863 -28.599 -68.3629
rradius 23.2516
rwrist 8.91519
rhand -14.1128 10.4222
rfingers 7.12502
rthumb 12.0204 -19.2126
lclavicle -5.72997e-014 -1.03368e-014
lhumerus -20.7473 -0.385581 85.1553
lradius 35.8014
lwrist -6.11829
lhand -14.6783 25.9326
lfingers 7.12502
lthumb 11.475 55.5985
rfemur -28.1549 -0.286799 16.24
rtibia 20.6933
rfoot -3.48488 -5.80711
rtoes -12.2422
lfemur 14.5345 -3.97128 -29.3003
ltibia 22.139
lfoot -12.1472 -3.21571
ltoes -22.8344
374
root 0.704339 17.1076 7.32268 0.402328 5.40258 6.53298
lowerback 5.69196 -2.56049 -7.70909
upperback 0.4917 -3.8596 1.45491
thorax -2.07073 -1.85813 6.11273
lowerneck -18.4825 -3.29402 -9.61296
upperneck 20.5736 -3.21821 5.96357
head 9.84448 -1.56747 3.24545
rclavicle 7.54885e-014 -1.11319e-014
rhumerus -41.8687 -29.1757 -67.8309
rradius 22.9292
rwrist 8.97655
rhand -13.9707 10.7957
rfingers 7.12502
rthumb 12.1573 -18.831
lclavicle 7.54885e-014 -1.11319e-014
lhumerus -20.814 -0.455096 85.1615
lradius 36.0336
lwrist -5.72346
lhand -14.8168 25.9743
lfingers 7.12502
lthumb 11.3414 55.6476
rfemur -27.565 -0.450747 15.7997
rtibia 21.573
rfoot -2.46153 -5.90125
rtoes -10.2092
lfemur 14.8157 -4.5833 -29.6305
ltibia 23.1002
lfoot -10.7183 -4.01598
ltoes -23.1068
375
root 0.666597 17.1386 7.55948 0.506265 5.85873 6.15799
lowerback 5.47082 -2.75383 -7.57924
upperback 0.336936 -4.09274 1.63326
thorax -2.06661 -1.9711 6.23056
lowerneck -18.4762 -3.2196 -9.58537
upperneck 20.6318 -3.08558 5.80279
head 9.84954 -1.52332 3.20318
rclavicle 2.48481e-016 -9.54166e-015
rhumerus -42.3959 -28.9068 -67.6715
rradius 23.0976
rwrist 8.67074
rhand -14.2099 10.0839
rfingers 7.12502
rthumb 11.9267 -19.5564
lclavicle 2.48481e-016 -9.54166e-015
lhumerus -21.0244 -0.331846 85.1805
lradius 36.1506
lwrist -5.30146
lhand -14.663 26.5228
lfingers 7.12502
lthumb 11.4897 56.188
rfemur -27.471 0.365812 16.0444
rtibia 22.2381
rfoot -0.558052 -6.26235
rtoes -4.71174
lfemur 14.6067 -5.08188 -28.9402
ltibia 24.2818
lfoot -9.21438 -4.84945
ltoes -24.6408
376
root 0.630291 17.1662 7.78592 0.408913 6.03698 5.32471
lowerback 5.45039 -2.82709 -6.95895
upperback 0.141976 -4.15047 1.87214
thorax -2.27469 -1.99052 6.14123
lowerneck -18.0341 -3.17806 -9.55679
upperneck 20.6319 -3.06972 5.75448
head 9.76511 -1.52567 3.18472
rclavicle 2.55438e-014 7.95139e-016
rhumerus -43.162 -28.9993 -67.2403
rradius 23.1234
rwrist 8.90161
rhand -14.3489 9.54535
rfingers 7.12502
rthumb 11.7927 -20.1026
lclavicle 2.55438e-014 7.95139e-016
lhumerus -21.5187 -0.215179 85.1614
lradius 36.2561
lwrist -5.06724
lhand -14.656 26.6585
lfingers 7.12502
lthumb 11.4965 56.3233
rfemur -27.3003 1.10627 16.882
rtibia 22.725
rfoot 0.668725 -6.25367
rtoes -2.62788
lfemur 14.2221 -5.32916 -27.759
ltibia 25.8484
lfoot -7.50384 -5.82389
ltoes -26.3621
377
root 0.607622 17.1932 8.01218 0.219654 6.11402 4.78198
lowerback 5.45351 -2.80986 -6.42881
upperback -0.00618312 -4.09533 1.97442
thorax -2.46831 -1.95625 5.95299
lowerneck -17.5108 -3.1872 -9.63564
upperneck 20.7145 -3.12167 5.77632
head 9.70374 -1.5622 3.20146
rclavicle -8.62725e-014 1.35174e-014
rhumerus -43.8841 -29.4763 -66.545
rradius 22.8312
rwrist 9.50531
rhand -14.5969 9.26873
rfingers 7.12502
rthumb 11.5535 -20.3928
lclavicle -8.62725e-014 1.35174e-014
lhumerus -21.8694 0.039002 85.1974
lradius 36.0423
lwrist -5.28108
lhand -14.8208 26.1744
lfingers 7.12502
lthumb 11.3376 55.8479
rfemur -26.7417 1.15597 17.6505
rtibia 23.0005
rfoot 1.22411 -5.85736
rtoes -1.86391
lfemur 13.6392 -5.48122 -26.9623
ltibia 27.9016
lfoot -5.23402 -6.75321
ltoes -27.3945
